<svg
   xmlns="http://www.w3.org/2000/svg"
   viewBox="0 0 261.7984 144.96889">
  <g id="layer1"
     transform="translate(-21.265163,-114.6967)">  
   <g
       aria-label="Studio Leandro Neves"
       transform="matrix(0.55095,0,0,0.55095,-14.494066,93.240978)">
      <path d="m 67.294005,98.676475 q 2.314667,1.568005 4.629333,3.061335 2.389333,1.41866 4.853333,2.53866 2.538667,1.12 5.152,1.86667 2.688,0.672 5.525333,0.672 2.762667,0 5.077334,-0.97067 2.389333,-0.97066 4.106666,-2.688 1.717333,-1.71733 2.613333,-4.031995 0.970663,-2.389333 0.970663,-5.077333 v -3.061333 q -0.447996,-1.568 -1.418663,-2.762667 -0.896,-1.269333 -2.090666,-2.24 -1.12,-1.045333 -2.464,-1.866666 -1.344,-0.896 -2.613333,-1.642667 -0.149334,-0.149333 -0.821334,-0.448 -0.597333,-0.298667 -0.746666,-0.373333 -5.301334,-2.090667 -9.706667,-3.808 -4.405333,-1.792 -7.615999,-4.330667 -3.136,-2.538666 -4.928,-6.421333 -1.792,-3.882666 -1.792,-10.229333 0,-3.210666 1.493333,-6.122666 1.568,-2.912 3.957333,-5.301333 2.464,-2.389334 5.376,-4.032 2.986667,-1.717334 5.898667,-2.389334 h 5.077333 q 4.48,0 8.511999,0.597334 4.032003,0.597333 7.914663,3.061333 0.37334,0.298667 0.97067,0.896 0.672,0.597333 0.672,0.746667 v 8.511999 h -0.448 q -3.95733,-2.090666 -8.138666,-3.882666 -4.181333,-1.866667 -8.736,-1.866667 -2.613333,0 -5.002666,0.746667 -2.314667,0.672 -4.181333,2.090666 -1.866667,1.418667 -2.986667,3.509334 -1.045333,2.090666 -1.045333,4.853333 0,3.509333 1.418666,5.824 1.493334,2.314666 3.882667,4.031999 2.389333,1.642667 5.376,2.837334 3.061333,1.194666 6.197333,2.464 3.210666,1.269333 6.197333,2.837333 3.061336,1.568 5.450666,3.957333 2.38933,2.314667 3.808,5.674666 1.49333,3.36 1.49333,8.288 0,5.077333 -1.792,9.034665 -1.71733,3.95733 -4.85333,6.64533 -3.135999,2.688 -7.391999,4.10667 -4.181333,1.41867 -9.109333,1.41867 -4.48,0 -8.437333,-1.344 -3.957333,-1.41867 -7.84,-3.584 -0.597333,-0.37334 -1.568,-0.97067 -0.896,-0.59733 -0.896,-0.672 z" />
      <path d="M 114.34217,47.380477 V 39.46581 h 64.13867 v 7.914667 H 151.4515 v 67.125333 h -8.512 V 47.380477 Z" />
      <path d="m 191.18234,39.839144 v 45.845332 q 0,0.223999 0.14933,1.045333 0.14933,0.821333 0.37333,1.792 0.224,0.970666 0.448,1.941333 0.29867,0.896 0.448,1.344 1.12,3.509333 3.36,6.346666 2.24,2.837332 5.152,4.853332 2.912,2.016 6.34667,3.136 3.43466,1.12 7.01866,1.12 3.50934,0 6.86934,-0.97067 3.36,-0.97066 6.272,-2.76266 2.912,-1.86667 5.152,-4.480002 2.31466,-2.688 3.65866,-6.047999 0.14934,-0.448 0.37334,-1.12 0.29866,-0.746667 0.52266,-1.418667 0.224,-0.746667 0.37334,-1.269333 0.14933,-0.522667 0.14933,-0.672 V 39.839144 h 7.91467 v 49.503998 q 0,3.36 -1.49334,6.72 -1.49333,3.285333 -3.43466,5.898668 -4.85334,6.72 -11.79734,10.08 -6.86933,3.36 -15.15733,3.36 -5.97333,0 -11.49866,-2.16534 -5.45067,-2.24 -9.632,-6.12266 -4.18134,-3.88267 -6.64534,-9.109335 -2.464,-5.301333 -2.464,-11.498666 V 39.839144 Z" />
      <path d="m 253.14283,106.88981 q 4.33067,0 8.96,-0.97067 4.704,-0.97067 9.10934,-2.76267 4.48,-1.86666 8.43733,-4.479995 3.95733,-2.688 6.86933,-6.048 2.98667,-3.36 4.704,-7.317333 1.792,-4.032 1.792,-8.586666 0,-4.48 -1.792,-8.362667 -1.71733,-3.957333 -4.77866,-7.242666 -2.98667,-3.36 -7.01867,-5.973333 -3.95733,-2.613333 -8.43733,-4.405333 -4.40534,-1.792 -9.03467,-2.762667 -4.55467,-0.970667 -8.81067,-0.970667 V 39.68981 q 5.67467,0 11.424,1.12 5.824,1.12 11.2,3.36 5.45067,2.165334 10.15467,5.376 4.77867,3.210667 8.288,7.392 3.50933,4.106666 5.52533,9.184 2.09067,5.077333 2.09067,10.975999 0,5.898667 -2.09067,10.976 -2.016,5.077333 -5.52533,9.258666 -3.50933,4.181335 -8.288,7.391995 -4.704,3.21067 -10.15467,5.45067 -5.376,2.16533 -11.2,3.28533 -5.74933,1.12 -11.424,1.12 z" />
      <path d="m 317.27799,39.91381 v 74.592 h -8.064 v -74.592 z" />
      <path d="m 324.06799,76.948476 q 0,-8.064 3.21067,-15.008 3.28533,-7.018666 8.736,-12.095999 5.45067,-5.077333 12.61867,-7.989333 7.168,-2.912 15.08266,-2.912 7.91467,0 15.08267,2.912 7.168,2.912 12.61867,7.989333 5.45066,5.077333 8.66133,12.095999 3.21067,6.944 3.21067,15.008 0,8.064 -3.21067,15.082666 -3.21067,6.944 -8.66133,12.021328 -5.45067,5.07734 -12.61867,7.98934 -7.168,2.912 -15.08267,2.912 -7.91466,0 -15.08266,-2.912 -7.168,-2.912 -12.61867,-7.98934 -5.45067,-5.077328 -8.736,-12.021328 -3.21067,-7.018666 -3.21067,-15.082666 z m 8.96,-0.224 q 0,6.346666 2.38934,11.946666 2.464,5.525333 6.64533,9.632 4.256,4.106668 9.78133,6.495998 5.6,2.38933 11.872,2.38933 6.272,0 11.79734,-2.38933 5.6,-2.38933 9.78133,-6.495998 4.256,-4.106667 6.64533,-9.632 2.464,-5.6 2.464,-11.946666 0,-6.346667 -2.464,-11.872 -2.38933,-5.6 -6.64533,-9.706666 -4.18133,-4.106667 -9.78133,-6.496 -5.52534,-2.389333 -11.79734,-2.389333 -6.272,0 -11.872,2.389333 -5.52533,2.389333 -9.78133,6.496 -4.18133,4.106666 -6.64533,9.706666 -2.38934,5.525333 -2.38934,11.872 z" />
      <path d="m 107.09134,200.14847 v 7.69067 H 64.904672 v -7.69067 z m -34.122668,-66.976 v 74.29333 h -8.064 v -74.29333 z" />
      <path d="m 153.758,200.14847 v 7.69067 h -42.18666 v -7.69067 z m 0,-33.67467 v 7.69067 h -42.18666 v -7.69067 z m 0,-33.67466 v 7.69067 h -42.18666 v -7.69067 z" />
      <path d="m 209.01133,133.32181 48.90667,74.44266 h -9.55734 l -21.952,-33.376 h -34.94399 l -21.952,33.376 h -9.55734 z m 11.79733,32.47999 -11.79733,-18.21866 -11.94666,18.21866 z" />
      <path d="m 265.39283,133.17247 h 10.45334 l 51.96799,63.84 v -63.84 h 8.21334 v 74.74133 h -8.21334 z" />
      <path d="m 343.55951,200.22314 q 4.33066,0 8.95999,-0.97067 4.704,-0.97067 9.10934,-2.76267 4.48,-1.86666 8.43733,-4.48 3.95733,-2.688 6.86933,-6.048 2.98667,-3.36 4.704,-7.31733 1.792,-4.032 1.792,-8.58667 0,-4.48 -1.792,-8.36266 -1.71733,-3.95734 -4.77866,-7.24267 -2.98667,-3.36 -7.01867,-5.97333 -3.95733,-2.61334 -8.43733,-4.40534 -4.40534,-1.79199 -9.03467,-2.76266 -4.55467,-0.97067 -8.81066,-0.97067 v -7.31733 q 5.67466,0 11.42399,1.12 5.824,1.12 11.2,3.36 5.45067,2.16533 10.15467,5.376 4.77867,3.21066 8.288,7.392 3.50933,4.10666 5.52533,9.184 2.09067,5.07733 2.09067,10.976 0,5.89866 -2.09067,10.976 -2.016,5.07733 -5.52533,9.25866 -3.50933,4.18134 -8.288,7.392 -4.704,3.21067 -10.15467,5.45067 -5.376,2.16533 -11.2,3.28533 -5.74933,1.12 -11.42399,1.12 z" />
      <path d="m 419.86532,166.9218 -0.37334,-0.82133 q 0.52267,-0.37333 1.344,-0.672 0.82134,-0.29867 1.71734,-0.52267 0.896,-0.29866 1.71733,-0.448 0.82133,-0.224 1.26933,-0.448 3.808,-1.26933 6.19734,-3.88266 2.38933,-2.61334 2.38933,-6.86934 0,-3.43466 -1.792,-6.42133 -1.71733,-3.06133 -5.152,-4.33067 -0.59733,-0.22399 -1.49333,-0.52266 -0.896,-0.29867 -1.792,-0.52267 -0.896,-0.29866 -1.64267,-0.52266 -0.672,-0.224 -0.74667,-0.224 h -24.34133 v -7.54134 h 24.78933 q 0.0747,0 0.59734,0.14934 0.52266,0.0747 1.12,0.224 0.672,0.0747 1.26933,0.224 0.672,0.14933 1.04533,0.224 3.65867,0.896 6.72,2.61333 3.136,1.64267 5.30134,4.032 2.16533,2.38933 3.36,5.6 1.26933,3.136 1.26933,7.09333 0,5.74933 -2.83733,9.78133 -2.83734,3.95734 -7.76534,7.01867 v 0.82133 l 23.66934,36.512 h -9.632 z" />
      <path d="m 460.85965,170.2818 q 0,-8.064 3.21067,-15.008 3.28533,-7.01866 8.736,-12.096 5.45066,-5.07733 12.61866,-7.98933 7.168,-2.912 15.08267,-2.912 7.91467,0 15.08267,2.912 7.168,2.912 12.61866,7.98933 5.45067,5.07734 8.66134,12.096 3.21066,6.944 3.21066,15.008 0,8.064 -3.21066,15.08267 -3.21067,6.944 -8.66134,12.02133 -5.45066,5.07734 -12.61866,7.98934 -7.168,2.912 -15.08267,2.912 -7.91467,0 -15.08267,-2.912 -7.168,-2.912 -12.61866,-7.98934 -5.45067,-5.07733 -8.736,-12.02133 -3.21067,-7.01867 -3.21067,-15.08267 z m 8.96,-0.224 q 0,6.34667 2.38933,11.94667 2.464,5.52533 6.64534,9.632 4.256,4.10667 9.78133,6.496 5.6,2.38933 11.872,2.38933 6.272,0 11.79733,-2.38933 5.6,-2.38933 9.78134,-6.496 4.256,-4.10667 6.64533,-9.632 2.464,-5.6 2.464,-11.94667 0,-6.34666 -2.464,-11.872 -2.38933,-5.6 -6.64533,-9.70666 -4.18134,-4.10667 -9.78134,-6.496 -5.52533,-2.38933 -11.79733,-2.38933 -6.272,0 -11.872,2.38933 -5.52533,2.38933 -9.78133,6.496 -4.18134,4.10666 -6.64534,9.70666 -2.38933,5.52534 -2.38933,11.872 z" />
      <path d="m 66.622005,226.5058 h 10.453333 l 51.968002,63.84 v -63.84 h 8.21333 v 74.74133 h -8.21333 z" />
      <path d="m 185.258,293.4818 v 7.69066 h -42.18666 v -7.69066 z m 0,-33.67467 v 7.69067 h -42.18666 v -7.69067 z m 0,-33.67466 v 7.69066 h -42.18666 v -7.69066 z" />
      <path d="m 201.386,226.5058 38.37867,58.688 q 0,0.0747 0.14933,0.224 0.14933,0.14933 0.224,0.224 h 0.224 0.224 q 0.0747,-0.0747 0.14933,-0.224 0.14933,-0.14934 0.29867,-0.224 0.448,-0.74667 1.64266,-2.53867 1.19467,-1.86666 2.53867,-3.88266 1.344,-2.09067 2.53867,-3.95734 1.19466,-1.86666 1.71733,-2.61333 0.14933,-0.14933 0.59733,-0.74667 0.448,-0.672 0.59734,-0.82133 l 28.672,-44.128 h 10.00533 L 240.362,300.94846 191.45533,226.5058 Z" />
      <path d="m 337.21634,293.4818 v 7.69066 h -42.18667 v -7.69066 z m 0,-33.67467 v 7.69067 h -42.18667 v -7.69067 z m 0,-33.67466 v 7.69066 h -42.18667 v -7.69066 z" />
      <path d="m 344.08566,285.34313 q 2.31467,1.568 4.62933,3.06133 2.38934,1.41867 4.85334,2.53867 2.53866,1.12 5.152,1.86667 2.688,0.672 5.52533,0.672 2.76267,0 5.07733,-0.97067 2.38934,-0.97067 4.10667,-2.688 1.71733,-1.71733 2.61333,-4.032 0.97067,-2.38933 0.97067,-5.07733 v -3.06133 q -0.448,-1.568 -1.41867,-2.76267 -0.896,-1.26933 -2.09066,-2.24 -1.12,-1.04533 -2.464,-1.86667 -1.344,-0.896 -2.61334,-1.64266 -0.14933,-0.14934 -0.82133,-0.448 -0.59733,-0.29867 -0.74667,-0.37334 -5.30133,-2.09066 -9.70666,-3.808 -4.40534,-1.792 -7.616,-4.33066 -3.136,-2.53867 -4.928,-6.42134 -1.792,-3.88266 -1.792,-10.22933 0,-3.21067 1.49333,-6.12267 1.568,-2.912 3.95733,-5.30133 2.464,-2.38933 5.376,-4.032 2.98667,-1.71733 5.89867,-2.38933 h 5.07733 q 4.48,0 8.512,0.59733 4.032,0.59733 7.91467,3.06133 0.37333,0.29867 0.97067,0.896 0.672,0.59734 0.672,0.74667 v 8.512 h -0.448 q -3.95734,-2.09067 -8.13867,-3.88267 -4.18133,-1.86666 -8.736,-1.86666 -2.61333,0 -5.00267,0.74666 -2.31466,0.672 -4.18133,2.09067 -1.86667,1.41867 -2.98667,3.50933 -1.04533,2.09067 -1.04533,4.85334 0,3.50933 1.41867,5.824 1.49333,2.31466 3.88266,4.032 2.38934,1.64266 5.376,2.83733 3.06134,1.19467 6.19734,2.464 3.21066,1.26933 6.19733,2.83733 3.06133,1.568 5.45067,3.95734 2.38933,2.31466 3.808,5.67466 1.49333,3.36 1.49333,8.288 0,5.07733 -1.792,9.03467 -1.71733,3.95733 -4.85333,6.64533 -3.136,2.688 -7.392,4.10667 -4.18134,1.41866 -9.10934,1.41866 -4.48,0 -8.43733,-1.344 -3.95733,-1.41866 -7.84,-3.584 -0.59733,-0.37333 -1.568,-0.97066 -0.896,-0.59734 -0.896,-0.672 z" />
      <path d="m 317.27799,39.91381 v 74.592 h -8.064 v -74.592 z" />
      <path d="m 274.62614,133.17247 v 74.592 h -8.064 v -74.592 z" />
      <path d="m 75.646467,226.5058 v 74.592 h -8.064 v -74.592 z" />
    </g>
  </g>
</svg>
