<svg
   xmlns:svg="http://www.w3.org/2000/svg"
   xmlns="http://www.w3.org/2000/svg"
   width="35.92107mm"
   height="22.713245mm"
   viewBox="0 0 35.92107 22.713245">
  <g transform="translate(-26.558539,-25.016217)">
  <g aria-label="Studio Leandro Neves"
       transform="scale(0.26458333)"
       style="font-style:normal;font-variant:normal;font-weight:normal;font-stretch:normal;font-size:42.66666794px;line-height:0.75;font-family:'Dear Elisa';-inkscape-font-specification:'Dear Elisa, Normal';font-variant-ligatures:normal;font-variant-caps:normal;font-variant-numeric:normal;text-align:start;letter-spacing:0px;word-spacing:0px;writing-mode:lr-tb;text-anchor:start;fill:#000000;fill-opacity:1;stroke:none">
      <path
         d="m 101.0614,111.61615 q 0.66133,0.448 1.32267,0.87467 0.68266,0.40533 1.38666,0.72533 0.72534,0.32 1.472,0.53333 0.768,0.192 1.57867,0.192 0.78933,0 1.45067,-0.27733 0.68266,-0.27733 1.17333,-0.768 0.49067,-0.49067 0.74667,-1.152 0.27733,-0.68267 0.27733,-1.45067 v -0.87466 q -0.128,-0.448 -0.40533,-0.78934 -0.256,-0.36266 -0.59734,-0.64 -0.32,-0.29866 -0.704,-0.53333 -0.384,-0.256 -0.74666,-0.46933 -0.0427,-0.0427 -0.23467,-0.128 -0.17067,-0.0853 -0.21333,-0.10667 -1.51467,-0.59733 -2.77334,-1.088 -1.25866,-0.512 -2.176,-1.23733 -0.896,-0.72534 -1.408,-1.83467 -0.512,-1.10933 -0.512,-2.922665 0,-0.917334 0.42667,-1.749334 0.448,-0.832 1.13067,-1.514667 0.704,-0.682666 1.536,-1.152 0.85333,-0.490666 1.68533,-0.682666 h 1.45067 q 1.28,0 2.432,0.170666 1.152,0.170667 2.26133,0.874667 0.10667,0.08533 0.27733,0.256 0.192,0.170667 0.192,0.213333 v 2.432 h -0.128 q -1.13066,-0.597333 -2.32533,-1.109333 -1.19467,-0.533333 -2.496,-0.533333 -0.74667,0 -1.42933,0.213333 -0.66134,0.192 -1.19467,0.597333 -0.53333,0.405334 -0.85333,1.002667 -0.29867,0.597334 -0.29867,1.386669 0,1.00266 0.40533,1.664 0.42667,0.66133 1.10934,1.152 0.68266,0.46933 1.536,0.81066 0.87466,0.34134 1.77066,0.704 0.91734,0.36267 1.77067,0.81067 0.87467,0.448 1.55733,1.13067 0.68267,0.66133 1.088,1.62133 0.42667,0.96 0.42667,2.368 0,1.45067 -0.512,2.58133 -0.49067,1.13067 -1.38667,1.89867 -0.896,0.768 -2.112,1.17333 -1.19466,0.40534 -2.60266,0.40534 -1.28,0 -2.41067,-0.384 -1.13067,-0.40534 -2.24,-1.024 -0.17067,-0.10667 -0.448,-0.27734 -0.256,-0.17066 -0.256,-0.192 z"
         style="font-style:normal;font-variant:normal;font-weight:normal;font-stretch:normal;font-size:21.33333397px;line-height:0.75;font-family:PROMETHEUS;-inkscape-font-specification:PROMETHEUS"/>
      <path
         d="m 114.50373,96.960151 v -2.261333 h 18.32534 v 2.261333 h -7.72267 v 19.178669 h -2.432 V 96.960151 Z"
         style="font-style:normal;font-variant:normal;font-weight:normal;font-stretch:normal;font-size:21.33333397px;line-height:0.75;font-family:PROMETHEUS;-inkscape-font-specification:PROMETHEUS" />
      <path
         d="m 136.45807,94.805484 v 13.098666 q 0,0.064 0.0427,0.29867 0.0427,0.23466 0.10666,0.512 0.064,0.27733 0.128,0.55466 0.0853,0.256 0.128,0.384 0.32,1.00267 0.96,1.81334 0.64,0.81066 1.472,1.38666 0.832,0.576 1.81334,0.896 0.98133,0.32 2.00533,0.32 1.00267,0 1.96267,-0.27733 0.96,-0.27733 1.792,-0.78933 0.832,-0.53334 1.472,-1.28 0.66133,-0.768 1.04533,-1.728 0.0427,-0.128 0.10667,-0.32 0.0853,-0.21334 0.14933,-0.40534 0.064,-0.21333 0.10667,-0.36266 0.0427,-0.14934 0.0427,-0.192 V 94.805484 h 2.26134 v 14.143996 q 0,0.96 -0.42667,1.92 -0.42667,0.93867 -0.98133,1.68534 -1.38667,1.92 -3.37067,2.88 -1.96267,0.96 -4.33067,0.96 -1.70666,0 -3.28533,-0.61867 -1.55733,-0.64 -2.752,-1.74933 -1.19467,-1.10934 -1.89867,-2.60267 -0.704,-1.51467 -0.704,-3.28533 V 94.805484 Z"
         style="font-style:normal;font-variant:normal;font-weight:normal;font-stretch:normal;font-size:21.33333397px;line-height:0.75;font-family:PROMETHEUS;-inkscape-font-specification:PROMETHEUS" />
      <path
         d="m 154.16107,113.96282 q 1.23733,0 2.56,-0.27734 1.344,-0.27733 2.60267,-0.78933 1.28,-0.53333 2.41066,-1.28 1.13067,-0.768 1.96267,-1.728 0.85333,-0.96 1.344,-2.09067 0.512,-1.152 0.512,-2.45333 0,-1.28 -0.512,-2.38933 -0.49067,-1.13067 -1.36533,-2.06934 -0.85334,-0.959995 -2.00534,-1.706662 -1.13066,-0.746667 -2.41066,-1.258667 -1.25867,-0.512 -2.58134,-0.789333 -1.30133,-0.277334 -2.51733,-0.277334 v -2.090666 q 1.62133,0 3.264,0.32 1.664,0.32 3.2,0.96 1.55733,0.618666 2.90133,1.536 1.36534,0.917333 2.368,2.112 1.00267,1.173332 1.57867,2.624002 0.59733,1.45066 0.59733,3.136 0,1.68533 -0.59733,3.136 -0.576,1.45066 -1.57867,2.64533 -1.00266,1.19467 -2.368,2.112 -1.344,0.91733 -2.90133,1.55733 -1.536,0.61867 -3.2,0.93867 -1.64267,0.32 -3.264,0.32 z"
         style="font-style:normal;font-variant:normal;font-weight:normal;font-stretch:normal;font-size:21.33333397px;line-height:0.75;font-family:PROMETHEUS;-inkscape-font-specification:PROMETHEUS" />
      <path
         d="m 172.4854,94.826818 v 21.312002 h -2.304 V 94.826818 Z"
         style="font-style:normal;font-variant:normal;font-weight:normal;font-stretch:normal;font-size:21.33333397px;line-height:0.75;font-family:PROMETHEUS;-inkscape-font-specification:PROMETHEUS" />
      <path
         d="m 174.4254,105.40815 q 0,-2.304 0.91734,-4.288 0.93866,-2.005332 2.496,-3.455999 1.55733,-1.450667 3.60533,-2.282667 2.048,-0.832 4.30933,-0.832 2.26134,0 4.30934,0.832 2.048,0.832 3.60533,2.282667 1.55733,1.450667 2.47467,3.455999 0.91733,1.984 0.91733,4.288 0,2.304 -0.91733,4.30933 -0.91734,1.984 -2.47467,3.43467 -1.55733,1.45067 -3.60533,2.28267 -2.048,0.832 -4.30934,0.832 -2.26133,0 -4.30933,-0.832 -2.048,-0.832 -3.60533,-2.28267 -1.55734,-1.45067 -2.496,-3.43467 -0.91734,-2.00533 -0.91734,-4.30933 z m 2.56,-0.064 q 0,1.81333 0.68267,3.41333 0.704,1.57867 1.89867,2.752 1.216,1.17334 2.79466,1.856 1.6,0.68267 3.392,0.68267 1.792,0 3.37067,-0.68267 1.6,-0.68266 2.79467,-1.856 1.216,-1.17333 1.89866,-2.752 0.704,-1.6 0.704,-3.41333 0,-1.81333 -0.704,-3.392 -0.68266,-1.6 -1.89866,-2.773332 -1.19467,-1.173334 -2.79467,-1.856 -1.57867,-0.682667 -3.37067,-0.682667 -1.792,0 -3.392,0.682667 -1.57866,0.682666 -2.79466,1.856 -1.19467,1.173332 -1.89867,2.773332 -0.68267,1.57867 -0.68267,3.392 z"
         style="font-style:normal;font-variant:normal;font-weight:normal;font-stretch:normal;font-size:21.33333397px;line-height:0.75;font-family:PROMETHEUS;-inkscape-font-specification:PROMETHEUS" />
      <path
         d="m 112.43207,145.94148 v 2.19734 h -12.05334 v -2.19734 z m -9.74934,-19.136 v 21.22667 h -2.304 v -21.22667 z"
         style="font-style:normal;font-variant:normal;font-weight:normal;font-stretch:normal;font-size:21.33333397px;line-height:0.75;font-family:PROMETHEUS;-inkscape-font-specification:PROMETHEUS" />
      <path
         d="m 125.7654,145.94148 v 2.19734 h -12.05333 v -2.19734 z m 0,-9.62133 v 2.19733 h -12.05333 v -2.19733 z m 0,-9.62133 v 2.19733 h -12.05333 v -2.19733 z"
         style="font-style:normal;font-variant:normal;font-weight:normal;font-stretch:normal;font-size:21.33333397px;line-height:0.75;font-family:PROMETHEUS;-inkscape-font-specification:PROMETHEUS" />
      <path
         d="m 141.55207,126.84815 13.97333,21.26934 h -2.73066 l -6.272,-9.53601 h -9.984 l -6.272,9.53601 h -2.73067 z m 3.37067,9.28 -3.37067,-5.20533 -3.41333,5.20533 z"
         style="font-style:normal;font-variant:normal;font-weight:normal;font-stretch:normal;font-size:21.33333397px;line-height:0.75;font-family:PROMETHEUS;-inkscape-font-specification:PROMETHEUS" />
      <path
         d="m 157.66107,126.80548 h 2.98667 l 14.848,18.24 v -18.24 h 2.34666 v 21.35467 h -2.34666 z"
         style="font-style:normal;font-variant:normal;font-weight:normal;font-stretch:normal;font-size:21.33333397px;line-height:0.75;font-family:PROMETHEUS;-inkscape-font-specification:PROMETHEUS" />
      <path
         d="m 179.9944,145.96282 q 1.23733,0 2.56,-0.27734 1.344,-0.27733 2.60267,-0.78933 1.28,-0.53333 2.41066,-1.28 1.13067,-0.768 1.96267,-1.728 0.85333,-0.96 1.344,-2.09067 0.512,-1.152 0.512,-2.45333 0,-1.28 -0.512,-2.38933 -0.49067,-1.13067 -1.36533,-2.06934 -0.85334,-0.96 -2.00534,-1.70666 -1.13066,-0.74667 -2.41066,-1.25867 -1.25867,-0.512 -2.58134,-0.78933 -1.30133,-0.27734 -2.51733,-0.27734 v -2.09066 q 1.62133,0 3.264,0.32 1.664,0.32 3.2,0.96 1.55733,0.61866 2.90133,1.536 1.36534,0.91733 2.368,2.112 1.00267,1.17333 1.57867,2.624 0.59733,1.45066 0.59733,3.136 0,1.68533 -0.59733,3.136 -0.576,1.45066 -1.57867,2.64533 -1.00266,1.19467 -2.368,2.112 -1.344,0.91733 -2.90133,1.55733 -1.536,0.61867 -3.2,0.93867 -1.64267,0.32 -3.264,0.32 z"
         style="font-style:normal;font-variant:normal;font-weight:normal;font-stretch:normal;font-size:21.33333397px;line-height:0.75;font-family:PROMETHEUS;-inkscape-font-specification:PROMETHEUS" />
      <path
         d="m 201.79607,136.44815 -0.10666,-0.23467 q 0.14933,-0.10666 0.384,-0.192 0.23466,-0.0853 0.49066,-0.14933 0.256,-0.0853 0.49067,-0.128 0.23467,-0.064 0.36267,-0.128 1.088,-0.36267 1.77066,-1.10933 0.68267,-0.74667 0.68267,-1.96267 0,-0.98133 -0.512,-1.83467 -0.49067,-0.87466 -1.472,-1.23733 -0.17067,-0.064 -0.42667,-0.14933 -0.256,-0.0853 -0.512,-0.14934 -0.256,-0.0853 -0.46933,-0.14933 -0.192,-0.064 -0.21333,-0.064 h -6.95467 v -2.15467 h 7.08267 q 0.0213,0 0.17066,0.0427 0.14934,0.0213 0.32,0.064 0.192,0.0213 0.36267,0.064 0.192,0.0427 0.29867,0.064 1.04533,0.256 1.92,0.74667 0.896,0.46933 1.51466,1.152 0.61867,0.68266 0.96,1.6 0.36267,0.896 0.36267,2.02666 0,1.64267 -0.81067,2.79467 -0.81066,1.13067 -2.21866,2.00533 v 0.23467 l 6.76266,10.432 h -2.752 z"
         style="font-style:normal;font-variant:normal;font-weight:normal;font-stretch:normal;font-size:21.33333397px;line-height:0.75;font-family:PROMETHEUS;-inkscape-font-specification:PROMETHEUS"
         id="path1469" />
      <path
         d="m 213.50874,137.40815 q 0,-2.304 0.91733,-4.288 0.93867,-2.00533 2.496,-3.456 1.55734,-1.45067 3.60534,-2.28267 2.048,-0.832 4.30933,-0.832 2.26133,0 4.30933,0.832 2.048,0.832 3.60534,2.28267 1.55733,1.45067 2.47466,3.456 0.91734,1.984 0.91734,4.288 0,2.304 -0.91734,4.30933 -0.91733,1.984 -2.47466,3.43467 -1.55734,1.45067 -3.60534,2.28267 -2.048,0.832 -4.30933,0.832 -2.26133,0 -4.30933,-0.832 -2.048,-0.832 -3.60534,-2.28267 -1.55733,-1.45067 -2.496,-3.43467 -0.91733,-2.00533 -0.91733,-4.30933 z m 2.56,-0.064 q 0,1.81333 0.68267,3.41333 0.704,1.57867 1.89866,2.752 1.216,1.17334 2.79467,1.856 1.6,0.68267 3.392,0.68267 1.792,0 3.37067,-0.68267 1.6,-0.68266 2.79466,-1.856 1.216,-1.17333 1.89867,-2.752 0.704,-1.6 0.704,-3.41333 0,-1.81333 -0.704,-3.392 -0.68267,-1.6 -1.89867,-2.77333 -1.19466,-1.17334 -2.79466,-1.856 -1.57867,-0.68267 -3.37067,-0.68267 -1.792,0 -3.392,0.68267 -1.57867,0.68266 -2.79467,1.856 -1.19466,1.17333 -1.89866,2.77333 -0.68267,1.57867 -0.68267,3.392 z"
         style="font-style:normal;font-variant:normal;font-weight:normal;font-stretch:normal;font-size:21.33333397px;line-height:0.75;font-family:PROMETHEUS;-inkscape-font-specification:PROMETHEUS"/>
      <path
         d="m 100.8694,158.80548 h 2.98667 l 14.848,18.24 v -18.24 h 2.34667 v 21.35467 h -2.34667 z"
         style="font-style:normal;font-variant:normal;font-weight:normal;font-stretch:normal;font-size:21.33333397px;line-height:0.75;font-family:PROMETHEUS;-inkscape-font-specification:PROMETHEUS" />
      <path
         d="m 134.7654,177.94148 v 2.19734 h -12.05333 v -2.19734 z m 0,-9.62133 v 2.19733 h -12.05333 v -2.19733 z m 0,-9.62133 v 2.19733 h -12.05333 v -2.19733 z"
         style="font-style:normal;font-variant:normal;font-weight:normal;font-stretch:normal;font-size:21.33333397px;line-height:0.75;font-family:PROMETHEUS;-inkscape-font-specification:PROMETHEUS" />
      <path
         d="m 139.3734,158.80548 10.96534,16.768 q 0,0.0213 0.0427,0.064 0.0427,0.0427 0.064,0.064 h 0.064 0.064 q 0.0213,-0.0213 0.0427,-0.064 0.0427,-0.0427 0.0853,-0.064 0.128,-0.21333 0.46934,-0.72533 0.34133,-0.53333 0.72533,-1.10933 0.384,-0.59734 0.72533,-1.13067 0.34134,-0.53333 0.49067,-0.74667 0.0427,-0.0427 0.17067,-0.21333 0.128,-0.192 0.17066,-0.23467 l 8.192,-12.608 h 2.85867 l -13.99467,21.26934 -13.97333,-21.26934 z"
         style="font-style:normal;font-variant:normal;font-weight:normal;font-stretch:normal;font-size:21.33333397px;line-height:0.75;font-family:PROMETHEUS;-inkscape-font-specification:PROMETHEUS"
         inkscape:connector-curvature="0" />
      <path
         d="m 178.18207,177.94148 v 2.19734 h -12.05334 v -2.19734 z m 0,-9.62133 v 2.19733 h -12.05334 v -2.19733 z m 0,-9.62133 v 2.19733 h -12.05334 v -2.19733 z"
         style="font-style:normal;font-variant:normal;font-weight:normal;font-stretch:normal;font-size:21.33333397px;line-height:0.75;font-family:PROMETHEUS;-inkscape-font-specification:PROMETHEUS" />
      <path
         d="m 180.14474,175.61615 q 0.66133,0.448 1.32266,0.87467 0.68267,0.40533 1.38667,0.72533 0.72533,0.32 1.472,0.53333 0.768,0.192 1.57867,0.192 0.78933,0 1.45066,-0.27733 0.68267,-0.27733 1.17334,-0.768 0.49066,-0.49067 0.74666,-1.152 0.27734,-0.68267 0.27734,-1.45067 v -0.87466 q -0.128,-0.448 -0.40534,-0.78934 -0.256,-0.36266 -0.59733,-0.64 -0.32,-0.29866 -0.704,-0.53333 -0.384,-0.256 -0.74667,-0.46933 -0.0427,-0.0427 -0.23466,-0.128 -0.17067,-0.0853 -0.21334,-0.10667 -1.51466,-0.59733 -2.77333,-1.088 -1.25867,-0.512 -2.176,-1.23733 -0.896,-0.72534 -1.408,-1.83467 -0.512,-1.10933 -0.512,-2.92267 0,-0.91733 0.42667,-1.74933 0.448,-0.832 1.13066,-1.51467 0.704,-0.68266 1.536,-1.152 0.85334,-0.49066 1.68534,-0.68266 h 1.45066 q 1.28,0 2.432,0.17066 1.152,0.17067 2.26134,0.87467 0.10666,0.0853 0.27733,0.256 0.192,0.17067 0.192,0.21333 v 2.432 h -0.128 q -1.13067,-0.59733 -2.32533,-1.10933 -1.19467,-0.53333 -2.496,-0.53333 -0.74667,0 -1.42934,0.21333 -0.66133,0.192 -1.19466,0.59733 -0.53334,0.40534 -0.85334,1.00267 -0.29866,0.59733 -0.29866,1.38667 0,1.00266 0.40533,1.664 0.42667,0.66133 1.10933,1.152 0.68267,0.46933 1.536,0.81066 0.87467,0.34134 1.77067,0.704 0.91733,0.36267 1.77067,0.81067 0.87466,0.448 1.55733,1.13067 0.68267,0.66133 1.088,1.62133 0.42667,0.96 0.42667,2.368 0,1.45067 -0.512,2.58133 -0.49067,1.13067 -1.38667,1.89867 -0.896,0.768 -2.112,1.17333 -1.19467,0.40534 -2.60267,0.40534 -1.28,0 -2.41066,-0.384 -1.13067,-0.40534 -2.24,-1.024 -0.17067,-0.10667 -0.448,-0.27734 -0.256,-0.17066 -0.256,-0.192 z"
         style="font-style:normal;font-variant:normal;font-weight:normal;font-stretch:normal;font-size:21.33333397px;line-height:0.75;font-family:PROMETHEUS;-inkscape-font-specification:PROMETHEUS" />
      <path
         style="font-style:normal;font-variant:normal;font-weight:normal;font-stretch:normal;font-size:21.33333397px;line-height:0.75;font-family:PROMETHEUS;-inkscape-font-specification:PROMETHEUS"
         d="m 103.1734,158.80548 v 21.312 h -2.304 v -21.312 z" />
      <path
         style="font-style:normal;font-variant:normal;font-weight:normal;font-stretch:normal;font-size:21.33333397px;line-height:0.75;font-family:PROMETHEUS;-inkscape-font-specification:PROMETHEUS"
         d="m 160.64774,126.80548 v 21.312 h -2.304 v -21.312 z" />
    </g>
  </g>
</svg>
